<svg xmlns="http://www.w3.org/2000/svg" xmlns:xlink="http://www.w3.org/1999/xlink" width="360" zoomAndPan="magnify" viewBox="0 0 270 299.999988" height="400" preserveAspectRatio="xMidYMid meet" version="1.0"><defs><g/><clipPath id="a9e2fa5253"><path d="M 34.695312 13.730469 L 235.304688 13.730469 L 235.304688 214.339844 L 34.695312 214.339844 Z M 34.695312 13.730469 " clip-rule="nonzero"/></clipPath></defs><rect x="-27" width="324" fill="#ffffff" y="-29.999999" height="359.999986" fill-opacity="1"/><rect x="-27" width="324" fill="#ffffff" y="-29.999999" height="359.999986" fill-opacity="1"/><g clip-path="url(#a9e2fa5253)"><path fill="#3730a3" d="M 235.296875 13.730469 L 235.296875 214.332031 L 172.566406 214.332031 L 172.566406 120.820312 L 79.054688 214.332031 L 34.695312 169.972656 L 128.207031 76.464844 L 34.695312 76.464844 L 34.695312 13.730469 Z M 235.296875 13.730469 " fill-opacity="1" fill-rule="nonzero"/></g><g fill="#818cf8" fill-opacity="1"><g transform="translate(29.328173, 280.058496)"><g><path d="M 5.859375 -52.921875 L 20.84375 -52.921875 L 28.8125 -31.265625 C 29.195312 -30.171875 29.710938 -28.488281 30.359375 -26.21875 L 31.578125 -21.984375 L 31.90625 -21.984375 L 33.125 -26.21875 C 33.78125 -28.488281 34.296875 -30.171875 34.671875 -31.265625 L 42.328125 -52.921875 L 57.3125 -52.921875 L 57.3125 0 L 44.609375 0 L 44.609375 -15.625 C 44.609375 -17.632812 44.769531 -20.226562 45.09375 -23.40625 C 45.425781 -26.582031 45.78125 -29.523438 46.15625 -32.234375 L 46.40625 -34.515625 L 46.078125 -34.515625 L 41.6875 -21.8125 L 35.171875 -4.3125 L 27.671875 -4.3125 L 21.171875 -21.8125 L 16.9375 -34.515625 L 16.609375 -34.515625 L 16.84375 -32.234375 C 17.226562 -29.523438 17.582031 -26.582031 17.90625 -23.40625 C 18.226562 -20.226562 18.390625 -17.632812 18.390625 -15.625 L 18.390625 0 L 5.859375 0 Z M 5.859375 -52.921875 "/></g></g></g><g fill="#818cf8" fill-opacity="1"><g transform="translate(92.497277, 280.058496)"><g><path d="M 28.171875 0.984375 C 23.285156 0.984375 18.984375 -0.113281 15.265625 -2.3125 C 11.546875 -4.507812 8.664062 -7.695312 6.625 -11.875 C 4.59375 -16.0625 3.578125 -21.003906 3.578125 -26.703125 C 3.578125 -32.398438 4.59375 -37.296875 6.625 -41.390625 C 8.664062 -45.492188 11.546875 -48.601562 15.265625 -50.71875 C 18.984375 -52.832031 23.285156 -53.890625 28.171875 -53.890625 C 33.054688 -53.890625 37.351562 -52.816406 41.0625 -50.671875 C 44.78125 -48.523438 47.65625 -45.414062 49.6875 -41.34375 C 51.726562 -37.28125 52.75 -32.398438 52.75 -26.703125 C 52.75 -21.003906 51.726562 -16.0625 49.6875 -11.875 C 47.65625 -7.695312 44.78125 -4.507812 41.0625 -2.3125 C 37.351562 -0.113281 33.054688 0.984375 28.171875 0.984375 Z M 28.171875 -11.078125 C 31.316406 -11.078125 33.8125 -12.472656 35.65625 -15.265625 C 37.5 -18.054688 38.421875 -21.867188 38.421875 -26.703125 C 38.421875 -31.472656 37.507812 -35.1875 35.6875 -37.84375 C 33.875 -40.507812 31.367188 -41.84375 28.171875 -41.84375 C 24.960938 -41.84375 22.445312 -40.507812 20.625 -37.84375 C 18.8125 -35.1875 17.90625 -31.472656 17.90625 -26.703125 C 17.90625 -21.867188 18.828125 -18.054688 20.671875 -15.265625 C 22.515625 -12.472656 25.015625 -11.078125 28.171875 -11.078125 Z M 28.171875 -11.078125 "/></g></g></g><g fill="#818cf8" fill-opacity="1"><g transform="translate(148.82849, 280.058496)"><g><path d="M -0.8125 -52.921875 L 14 -52.921875 L 19.53125 -29.796875 C 20.238281 -26.972656 20.890625 -24.125 21.484375 -21.25 C 21.753906 -20.21875 22.039062 -19.019531 22.34375 -17.65625 C 22.644531 -16.300781 23.007812 -14.757812 23.4375 -13.03125 L 23.765625 -13.03125 C 24.253906 -14.925781 24.675781 -16.644531 25.03125 -18.1875 C 25.382812 -19.738281 25.695312 -21.082031 25.96875 -22.21875 C 26.457031 -24.71875 27.023438 -27.242188 27.671875 -29.796875 L 33.046875 -52.921875 L 47.375 -52.921875 L 31.75 0 L 14.8125 0 Z M -0.8125 -52.921875 "/></g></g></g><g fill="#818cf8" fill-opacity="1"><g transform="translate(195.39128, 280.058496)"><g><path d="M 5.859375 -52.921875 L 40.046875 -52.921875 L 40.046875 -41.1875 L 19.859375 -41.1875 L 19.859375 -32.890625 L 37.125 -32.890625 L 37.125 -21.171875 L 19.859375 -21.171875 L 19.859375 -11.71875 L 40.859375 -11.71875 L 40.859375 0 L 5.859375 0 Z M 5.859375 -52.921875 "/></g></g></g></svg>